<svg width="40" height="60" viewBox="0 0 40 60" fill="none" xmlns="http://www.w3.org/2000/svg">
<path d="M34.1935 5.32253H27.7419C25.4032 6.71366 24.8847 4.3548 20 4.3548C15.1152 4.3548 14.5968 6.71366 12.258 5.32253H5.80646L4.94623 29.6372C5.48388 39.1936 9.43545 44.3952 12.5538 46.2903H27.4462C30.5645 44.3952 34.5161 39.1936 35.0538 29.6372L34.1935 5.32253Z" fill="#F5DCB4"/>
<path d="M27.7419 5.32249C35.0061 8.58394 31.0516 25.4032 35.7289 32.6734C36.4004 33.7171 37.5868 33.2535 37.867 31.8654C38.2373 30.0313 38.6072 27.1297 38.5484 22.9838C38.4677 17.2984 40 16.9356 40 16.9356C40 16.9356 38.0645 3.38702 32.258 3.38702C30.3226 3.38702 27.7419 5.32249 27.7419 5.32249Z" fill="#965A50"/>
<path d="M13.2258 30.4839C11.9838 30.4839 10.9677 28.9598 10.9677 27.0968V25.1614C10.9677 23.2984 11.9838 21.7743 13.2258 21.7743C14.4677 21.7743 15.4838 23.2984 15.4838 25.1614V27.0968C15.4839 28.9599 14.4677 30.4839 13.2258 30.4839Z" fill="#4B3F4E"/>
<path d="M13.2258 21.774C13.1154 21.774 13.0094 21.7999 12.9032 21.8232V26.6127C12.9032 27.6816 13.4809 28.5482 14.1935 28.5482C14.9062 28.5482 15.4838 27.6816 15.4838 26.6127V25.1612C15.4839 23.2984 14.4677 21.774 13.2258 21.774Z" fill="#5D5360"/>
<path d="M13.2258 25.6452C13.7603 25.6452 14.1935 24.9953 14.1935 24.1936C14.1935 23.3919 13.7603 22.742 13.2258 22.742C12.6913 22.742 12.2581 23.3919 12.2581 24.1936C12.2581 24.9953 12.6913 25.6452 13.2258 25.6452Z" fill="white"/>
<path d="M26.7742 30.4839C25.5323 30.4839 24.5162 28.9598 24.5162 27.0968V25.1614C24.5162 23.2984 25.5323 21.7743 26.7742 21.7743C28.0162 21.7743 29.0323 23.2984 29.0323 25.1614V27.0968C29.0323 28.9599 28.0161 30.4839 26.7742 30.4839Z" fill="#4B3F4E"/>
<path d="M26.7742 21.774C26.6638 21.774 26.5579 21.7999 26.4516 21.8232V26.6127C26.4516 27.6816 27.0294 28.5482 27.7419 28.5482C28.4546 28.5482 29.0323 27.6816 29.0323 26.6127V25.1612C29.0323 23.2984 28.0161 21.774 26.7742 21.774Z" fill="#5D5360"/>
<path d="M26.7742 25.6452C27.3087 25.6452 27.742 24.9953 27.742 24.1936C27.742 23.3919 27.3087 22.742 26.7742 22.742C26.2398 22.742 25.8065 23.3919 25.8065 24.1936C25.8065 24.9953 26.2398 25.6452 26.7742 25.6452Z" fill="white"/>
<path d="M35.7289 32.6736C36.4004 33.7172 37.5868 33.2537 37.867 31.8654C38.0794 30.8136 38.2888 29.3975 38.4202 27.61C37.1519 26.6617 36.0692 23.6362 35.4032 18.5082C34.1935 9.19365 32.5 3.99205 27.7419 5.3226C35.0061 8.58404 31.0516 25.4034 35.7289 32.6736Z" fill="#824641"/>
<path d="M12.5538 46.2904H15.6117C15.6117 46.2904 10.242 40.8872 9.3549 31.3307C7.6292 12.7397 10.914 7.17742 13.7552 5.75804C13.3051 5.7809 12.8376 5.66734 12.2581 5.32269H5.80646L4.94623 29.6372C5.48388 39.1936 9.43545 44.3952 12.5538 46.2904Z" fill="#E7C9A5"/>
<path d="M12.258 5.32249C4.99391 8.58394 8.94852 25.4033 4.27109 32.6734C3.59961 33.7171 2.4132 33.2535 2.13297 31.8654C1.76266 30.0313 1.39281 27.1297 1.45164 22.9838C1.53227 17.2984 0 16.9356 0 16.9356C0 16.9356 1.93547 3.38702 7.74195 3.38702C9.67742 3.38702 12.258 5.32249 12.258 5.32249Z" fill="#965A50"/>
<path d="M12.0421 5.16839C11.3874 4.71277 9.34555 3.38702 7.74195 3.38702C1.93547 3.38702 0 16.9355 0 16.9355C0 16.9355 1.53227 17.2985 1.45164 22.9839C1.45055 23.0599 1.45203 23.1282 1.45125 23.2033C5.16383 2.07593 10.8687 4.42648 12.0421 5.16839Z" fill="#824641"/>
<path d="M20 54.6774C23.9195 54.6774 27.0969 51.2114 27.0969 46.936C27.0969 42.6605 23.9195 39.1946 20 39.1946C16.0805 39.1946 12.9031 42.6605 12.9031 46.936C12.9031 51.2114 16.0805 54.6774 20 54.6774Z" fill="#BC8E78"/>
<path d="M16.7742 46.9355V51.7742C16.7742 54.4465 18.2184 56.6128 20 56.6128C21.7816 56.6128 23.2258 54.4465 23.2258 51.7742V46.9355H16.7742Z" fill="#FF8087"/>
<path d="M16.7742 50.715C17.7071 50.5397 18.5874 50.114 19.3549 49.4702V50.8064C19.3549 51.3408 19.6438 51.7742 20 51.7742C20.3563 51.7742 20.6452 51.3408 20.6452 50.8064V49.4579C21.4052 50.1086 22.2878 50.539 23.2258 50.7154V46.9354H16.7742V50.715V50.715Z" fill="#E6646E"/>
<path d="M24.1935 38.226H15.8065C13.1341 38.226 10.9678 40.609 10.9678 43.5485C10.9678 46.488 13.1342 48.871 15.8065 48.871C17.1522 48.871 18.3676 48.2653 19.2436 47.2892C19.4654 47.0422 19.7328 46.9187 19.9998 46.9187C20.2672 46.9187 20.5346 47.0421 20.7564 47.2892C21.6324 48.2653 22.8478 48.871 24.1935 48.871C26.8659 48.871 29.0322 46.488 29.0322 43.5485C29.0323 40.609 26.8659 38.226 24.1935 38.226Z" fill="#D4AF91"/>
<path d="M20 34.3548C22.1379 34.3548 23.8709 36.0879 23.8709 38.2257C23.8709 40.2875 22.2441 41.3732 21.0699 42.1759C20.3893 42.6412 19.6105 42.6412 18.9299 42.1759C17.7558 41.3732 16.1289 40.2875 16.1289 38.2257C16.1291 36.088 17.8621 34.3548 20 34.3548Z" fill="#5D5360"/>
<path d="M18.0444 37.1673C17.9541 35.9493 18.5261 34.6469 18.5261 34.6469C17.1196 35.2269 16.1291 36.6099 16.1291 38.2257C16.1291 40.2874 17.7559 41.373 18.9301 42.1759C19.6106 42.6411 20.3894 42.6411 21.0701 42.1759C21.3226 42.0032 21.596 41.8162 21.8697 41.6105C20.2823 41.1895 18.2258 39.617 18.0444 37.1673Z" fill="#4B3F4E"/>
</svg>
