<svg width="40" height="60" viewBox="0 0 40 60" fill="none" xmlns="http://www.w3.org/2000/svg">
<path d="M35.3195 60C41.257 53.6019 32.6606 30 32.6606 30C31.9937 30 8.11656 30 7.46156 30C7.46156 30 -1.13503 53.6019 4.80263 60H35.3195Z" fill="#838383"/>
<path d="M32.6606 30C32.4776 30 30.5456 30 27.8254 30C27.8254 30 36.422 53.6019 30.4845 60H35.3196C41.2572 53.6019 32.6606 30 32.6606 30Z" fill="#5A5A5A"/>
<path d="M5.55728 35.9884C9.49613 38.5084 14.5226 40.0201 19.9992 40.0201C25.5243 40.0201 30.5918 38.4823 34.546 35.9221C33.5423 32.4209 32.6606 30 32.6606 30C31.9939 30 8.11658 30 7.46158 30C7.46158 30 6.56869 32.4517 5.55728 35.9884V35.9884Z" fill="#FFF0AD"/>
<path d="M32.6605 30C32.4776 30 30.5455 30 27.8253 30C27.8253 30 28.7071 32.4209 29.7107 35.9221C26.3409 38.104 22.1623 39.5425 17.5813 39.9202C18.3759 39.9858 19.1824 40.0201 19.9993 40.0201C25.5244 40.0201 30.5919 38.4823 34.5461 35.9221C33.5422 32.4209 32.6605 30 32.6605 30V30Z" fill="#FFE177"/>
<path d="M27.3936 5.18924L38.3815 0.1142C39.1106 -0.22248 39.9984 0.225645 39.9984 0.930527V19.2292L27.3937 11.8605V5.18924H27.3936Z" fill="#838383"/>
<path d="M12.0334 4.92619L1.61688 0.115176C0.887779 -0.221503 0 0.226622 0 0.931505V17.4624C0 18.2109 0.988644 18.6522 1.71443 18.2279L12.1309 12.1384C12.4275 11.9649 12.6046 11.6788 12.6046 11.3729V5.74252C12.6048 5.40209 12.3856 5.08885 12.0334 4.92619V4.92619Z" fill="#838383"/>
<path d="M20.0007 35.4914C31.0459 35.4914 39.9998 28.4598 39.9998 19.7858C39.9998 11.1119 31.0459 4.08026 20.0007 4.08026C8.95558 4.08026 0.00170898 11.1119 0.00170898 19.7858C0.00170898 28.4598 8.95558 35.4914 20.0007 35.4914Z" fill="#9C9C9C"/>
<path d="M15.3115 31.4559C12.6886 31.4559 10.5623 29.6501 10.5623 27.4224C10.5623 25.6606 12.2439 24.2325 14.3183 24.2325H20.0606V27.4224C20.0607 29.6502 17.9344 31.4559 15.3115 31.4559Z" fill="#CECECE"/>
<path d="M24.7483 31.4559C27.3713 31.4559 29.4976 29.6501 29.4976 27.4224C29.4976 25.6606 27.816 24.2325 25.7415 24.2325H19.9991V27.4224C19.9991 29.6502 22.1254 31.4559 24.7483 31.4559Z" fill="#CECECE"/>
<path d="M38.3815 0.115896L35.1631 1.60242V16.4042L39.9984 19.2309V0.932223C39.9983 0.227341 39.1105 -0.220901 38.3815 0.115896V0.115896Z" fill="#5A5A5A"/>
<path d="M19.9992 4.08026C19.1808 4.08026 18.3742 4.11975 17.5816 4.19475C27.4865 5.13214 35.1631 11.7545 35.1631 19.7858C35.1631 27.817 27.4865 34.4394 17.5816 35.3769C18.3742 35.4519 19.1808 35.4914 19.9992 35.4914C31.0444 35.4914 39.9984 28.4597 39.9984 19.7858C39.9982 11.1119 31.0444 4.08026 19.9992 4.08026V4.08026Z" fill="#838383"/>
<path d="M19.9992 44.1006C22.7983 44.1006 25.0675 42.1734 25.0675 39.7961C25.0675 37.4188 22.7983 35.4916 19.9992 35.4916C17.2 35.4916 14.9308 37.4188 14.9308 39.7961C14.9308 42.1734 17.2 44.1006 19.9992 44.1006Z" fill="#FFC344"/>
<path d="M25.7414 24.2327H21.7121C23.7865 24.2327 25.4681 25.6608 25.4681 27.4226V27.4227C25.4681 29.0385 24.349 30.4317 22.7337 31.0755C23.3454 31.3192 24.028 31.4562 24.7484 31.4562H24.7485C27.3714 31.4562 29.4977 29.6504 29.4977 27.4227V27.4226C29.4974 25.6608 27.8159 24.2327 25.7414 24.2327V24.2327Z" fill="#BFBFBF"/>
<path d="M19.9992 26.0633C21.133 26.0633 22.1085 25.1722 22.5427 23.8935C22.7961 23.1476 22.143 22.4018 21.2289 22.4018H18.7692C17.855 22.4018 17.202 23.1476 17.4553 23.8935C17.8898 25.1721 18.8654 26.0633 19.9992 26.0633V26.0633Z" fill="#444444"/>
<path d="M19.9991 35.4916C19.283 35.4916 18.6021 35.6184 17.9845 35.846C19.7811 36.5078 21.0381 38.0271 21.0381 39.7961C21.0381 41.5653 19.7811 43.0844 17.9845 43.7463C18.6021 43.9738 19.283 44.1006 19.9991 44.1006C22.7984 44.1006 25.0675 42.1734 25.0675 39.7961C25.0675 37.4188 22.7984 35.4916 19.9991 35.4916V35.4916Z" fill="#FEB137"/>
<path d="M11.9304 21.1267C11.3415 21.1267 10.8643 20.7214 10.8643 20.2214V17.324C10.8643 16.8239 11.3416 16.4186 11.9304 16.4186C12.5193 16.4186 12.9964 16.824 12.9964 17.324V20.2214C12.9966 20.7214 12.5193 21.1267 11.9304 21.1267Z" fill="#444444"/>
<path d="M28.1958 21.1267C27.6069 21.1267 27.1297 20.7214 27.1297 20.2214V17.324C27.1297 16.8239 27.607 16.4186 28.1958 16.4186C28.7845 16.4186 29.2618 16.824 29.2618 17.324V20.2214C29.2618 20.7214 28.7845 21.1267 28.1958 21.1267Z" fill="#444444"/>
</svg>
