<svg width="64" height="64" viewBox="0 0 64 64" fill="none" xmlns="http://www.w3.org/2000/svg">
<path d="M34 53V53.611C34 55.566 35.414 57.235 37.342 57.557L44.642 58.774C45.426 58.904 46 59.582 46 60.376C46 61.273 45.273 62 44.376 62H19.624C18.727 62 18 61.273 18 60.376C18 59.582 18.574 58.904 19.357 58.774L26.657 57.557C28.586 57.236 30 55.567 30 53.611V53" fill="#D8923E"/>
<path d="M30 24H34V49H30V24Z" fill="#8F6128"/>
<path d="M5.578 24H58.423C60.398 24 62 22.398 62 20.422C62 18.959 61.109 17.643 59.751 17.1L57 16C57.919 17.838 56.583 20 54.528 20H9.472C7.417 20 6.081 17.838 7 16L4.249 17.1C2.891 17.644 2 18.959 2 20.422C2 22.398 3.602 24 5.578 24V24Z" fill="#F2C351"/>
<path d="M30 16H34V20H30V16Z" fill="#8F6128"/>
<path d="M34 12L32.961 7.843H31.039L30 12H34Z" fill="#8F6128"/>
<path d="M32 8C33.6569 8 35 6.65686 35 5C35 3.34315 33.6569 2 32 2C30.3431 2 29 3.34315 29 5C29 6.65686 30.3431 8 32 8Z" fill="#BC7F35"/>
<path d="M28 12H36V16H28V12Z" fill="#BC7F35"/>
<path d="M32 54C33.6569 54 35 52.6569 35 51C35 49.3431 33.6569 48 32 48C30.3431 48 29 49.3431 29 51C29 52.6569 30.3431 54 32 54Z" fill="#BC7F35"/>
<path d="M42 46C42 49.314 46.477 52 52 52C57.523 52 62 49.314 62 46H42Z" fill="#C16B3F"/>
<path d="M52 30C53.6569 30 55 28.6569 55 27C55 25.3431 53.6569 24 52 24C50.3431 24 49 25.3431 49 27C49 28.6569 50.3431 30 52 30Z" fill="#F2C351"/>
<path d="M2 46C2 49.314 6.477 52 12 52C17.523 52 22 49.314 22 46H2Z" fill="#C16B3F"/>
<path d="M12 30C13.6569 30 15 28.6569 15 27C15 25.3431 13.6569 24 12 24C10.3431 24 9 25.3431 9 27C9 28.6569 10.3431 30 12 30Z" fill="#F2C351"/>
<path d="M14.23 25.01C13.68 24.395 12.89 24 12 24C10.343 24 9 25.343 9 27C9 27.907 9.411 28.711 10.048 29.261C12.123 28.744 13.747 27.098 14.23 25.01V25.01Z" fill="#F7D881"/>
<path d="M54.23 25.01C53.68 24.395 52.89 24 52 24C50.343 24 49 25.343 49 27C49 27.907 49.411 28.711 50.048 29.261C52.123 28.744 53.747 27.098 54.23 25.01V25.01Z" fill="#F7D881"/>
<path d="M33.547 2.442C33.094 2.167 32.569 2 32 2C30.343 2 29 3.343 29 5C29 5.676 29.232 6.293 29.609 6.794C31.633 6.231 33.184 4.542 33.547 2.442Z" fill="#D8923E"/>
<path d="M28 12V16H31.109C32.62 15.222 33.697 13.753 33.929 12H28Z" fill="#D8923E"/>
<path d="M33.912 48.706C33.392 48.272 32.731 48 32 48C30.343 48 29 49.343 29 51C29 51.632 29.197 52.216 29.531 52.7C31.559 52.156 33.19 50.655 33.912 48.706Z" fill="#D8923E"/>
<path d="M18.244 46H2C2 49.261 6.339 51.909 11.741 51.992C14.547 50.816 16.846 48.681 18.244 46Z" fill="#E39854"/>
<path d="M58.244 46H42C42 49.261 46.339 51.909 51.741 51.992C54.547 50.816 56.846 48.681 58.244 46Z" fill="#E39854"/>
<path d="M62.847 45.469L53.594 30.664C55.007 30.046 55.999 28.638 55.999 27C55.999 26.268 55.787 25.59 55.443 24.999H58.422C60.946 24.999 63 22.945 63.001 20.421C63.001 18.539 61.872 16.871 60.123 16.171L57.372 15.071C56.987 14.916 56.546 15.017 56.265 15.322C55.984 15.628 55.921 16.075 56.107 16.446C56.386 17.005 56.358 17.631 56.03 18.162C55.701 18.694 55.154 18.999 54.53 19L35.001 18.999V16.998H36.001C36.554 16.998 37.001 16.551 37.001 15.998V11.999C37.001 11.446 36.554 10.999 36.001 10.999H34.78L34.124 8.374C35.247 7.665 35.999 6.422 35.999 4.999C35.999 2.793 34.205 0.998997 31.999 0.998997C29.793 0.998997 27.999 2.793 27.999 4.999C27.999 6.422 28.752 7.665 29.874 8.374L29.218 10.999H28C27.447 10.999 27 11.446 27 11.999V15.998C27 16.551 27.447 16.998 28 16.998H29V18.999L9.471 18.998C9.471 18.999 9.47 18.999 9.47 18.999C8.846 18.999 8.3 18.694 7.971 18.163C7.642 17.631 7.614 17.006 7.893 16.446C8.079 16.075 8.016 15.628 7.735 15.322C7.454 15.017 7.016 14.916 6.628 15.071L3.877 16.171C2.129 16.871 1 18.539 1 20.421C1 22.944 3.054 24.998 5.578 25H5.579H8.557C8.211 25.591 8 26.268 8 27C8 28.638 8.992 30.046 10.405 30.664L1.151 45.469L1.167 45.479C1.07 45.633 1 45.804 1 46C1 49.925 5.832 52.999 12 52.999C18.168 52.999 23 49.925 23 46C23 45.804 22.929 45.633 22.833 45.479L22.849 45.469L13.596 30.664C15.009 30.046 16.001 28.638 16.001 27C16.001 26.268 15.789 25.591 15.445 25H29V48.381C28.385 49.084 28 49.993 28 50.999C28 52.004 28.385 52.912 29 53.616C28.997 55.086 27.945 56.329 26.494 56.57L19.193 57.788C17.921 57.999 17 59.087 17 60.375C17 61.822 18.177 63 19.624 63H44.376C45.823 63 47 61.822 47 60.375C47 59.087 46.078 57.999 44.808 57.786L37.508 56.569C36.057 56.328 35.004 55.086 35.001 53.615C35.615 52.912 36.001 52.003 36.001 50.998C36.001 49.992 35.616 49.083 35.001 48.38V24.999H48.558C48.211 25.59 48 26.268 48 27C48 28.638 48.992 30.046 50.405 30.664L41.152 45.469L41.168 45.479C41.07 45.633 41 45.804 41 46C41 49.925 45.832 52.999 52 52.999C58.168 52.999 63 49.925 63 46C63 45.804 62.929 45.633 62.833 45.479L62.847 45.469ZM32 2.999C33.103 2.999 34 3.895 34 4.999C34 6.102 33.103 6.998 32 6.998C30.897 6.998 30 6.102 30 4.999C30 3.896 30.896 2.999 32 2.999ZM31.785 8.976C31.858 8.98 31.926 8.998 32 8.998C32.073 8.998 32.141 8.98 32.214 8.976L32.719 10.999H31.28L31.785 8.976ZM29 12.999H35V14.998H29V12.999ZM30.999 16.998H32.999V18.999H30.999V16.998ZM2.999 20.421C2.999 19.361 3.635 18.422 4.62 18.027L5.721 17.588C5.775 18.154 5.958 18.71 6.271 19.215C6.961 20.332 8.158 20.999 9.47 20.999H9.471L54.528 21C55.842 20.999 57.039 20.331 57.73 19.213C58.042 18.709 58.225 18.153 58.278 17.587L59.379 18.027C60.364 18.422 61 19.361 61 20.421C61 21.843 59.843 22.999 58.421 22.999H52H51.999H51.998L12.008 23C12.005 23 12.002 22.999 12 22.999C11.998 22.999 11.994 23 11.991 23H5.578C4.156 22.999 2.999 21.842 2.999 20.421V20.421ZM12 31.886L20.196 45H3.802L12 31.886ZM12 50.999C7.735 50.999 4.05 49.25 3.189 47H20.81C19.949 49.25 16.264 50.999 12 50.999V50.999ZM13.999 27C13.999 28.103 13.102 29 11.999 29C10.896 29 9.999 28.103 9.999 27C9.999 25.899 10.892 25.005 11.991 25H12.008C13.107 25.005 13.999 25.899 13.999 27ZM33.999 50.999C33.999 52.102 33.102 52.998 31.999 52.998C30.896 52.998 29.999 52.102 29.999 50.999C29.999 49.895 30.896 48.999 31.999 48.999C33.102 48.999 33.999 49.896 33.999 50.999ZM37.178 58.543L44.478 59.759C44.78 59.81 44.999 60.069 44.999 60.375C44.999 60.719 44.719 61 44.375 61H19.624C19.279 61 19 60.719 19 60.375C19 60.068 19.219 59.81 19.521 59.76L26.821 58.543C28.834 58.208 30.372 56.71 30.838 54.806C31.208 54.919 31.592 54.998 31.999 54.998C32.405 54.998 32.79 54.919 33.16 54.806C33.627 56.71 35.164 58.208 37.178 58.543ZM33 47.141C32.679 47.057 32.347 46.999 32 46.999C31.652 46.999 31.321 47.058 31 47.141V25H33V47.141ZM51.998 24.999H52C53.103 25 53.999 25.897 53.999 27C53.999 28.103 53.102 29 51.999 29C50.896 29 49.999 28.103 49.999 27C50 25.897 50.896 25 51.998 24.999V24.999ZM60.196 45H43.802L52 31.886L60.196 45ZM52 50.999C47.735 50.999 44.05 49.25 43.189 47H60.81C59.949 49.25 56.264 50.999 52 50.999V50.999Z" fill="black"/>
</svg>
